# xmcd
#
# Track frame offsets: 
#        150
#        1599
#        14266
#        31131
#        54086
#        71906
#        89841
#        108872
#        127059
#        141352
#        158510
#        173683
#
# Disc length: 2637 seconds
#
# Revision: 0
# Processed by: cddbd v1.5.2PL0 Copyright (c) Steve Scherf et al.
# Submitted via: ExactAudioCopy v1.0b1
#
DISCID=910a4b0c
DTITLE=Various Artist - Scena country 3
DYEAR=1900
DGENRE=Country
TTITLE0=Lonstar - Sygnał programu TV "Scena Country"
TTITLE1=Coach - Jak to w życiu
TTITLE2=Full Service - Bo ty dobrze wiesz
TTITLE3=Colorado Band - 4 na 5
TTITLE4=Mariusz Kalaga - Umówmy się, że potrafimy kochać
TTITLE5=Cezary Makiewicz and Koltersi - Tomek śpiewaj
TTITLE6=Whiskey River - Umówmy się na wiosnę
TTITLE7=Johnny Walker - Los kierowcy
TTITLE8=Lonstar - Różne kolory
TTITLE9=Zayazd - Ty moje szczęście
TTITLE10=Magda Anioł - Ostatni raz
TTITLE11=Lonstar - Nauka gry piosenki pt. "Jak to w życiu"
EXTD=
EXTT0=
EXTT1=
EXTT2=
EXTT3=
EXTT4=
EXTT5=
EXTT6=
EXTT7=
EXTT8=
EXTT9=
EXTT10=
EXTT11=
PLAYORDER=
